<svg xmlns="http://www.w3.org/2000/svg" width="301.689" height="41.311" viewBox="0 0 301.689 41.311"><defs><style>.a,.c{fill:#e25222;}.b{fill:#707070;}.b,.c{font-size:30px;font-family:OpenSans-Bold, Open Sans;font-weight:700;}</style></defs><g transform="translate(-37.311 -37.689)"><path class="a" d="M332.957,149.659a4.367,4.367,0,0,0-3.772-2.178H322.3a4.366,4.366,0,0,0-3.772,2.178l-14.4,24.939a4.359,4.359,0,0,0,0,4.354l3.456,5.976a4.37,4.37,0,0,0,3.773,2.177h6a4.368,4.368,0,0,0,3.772-2.178l1.839-3.185a4.7,4.7,0,0,0,.629-2.346v-6.534a.633.633,0,0,0-1.01-.509l-10.029,6.991a.563.563,0,0,1-.822-.168l-1.169-2a.809.809,0,0,1,.131-.983l12-11.376a3.009,3.009,0,0,0,.9-2.139v-5.046c0-1.014.725-3.385,1.685-3.926a1.006,1.006,0,0,1,.823-.053c1.014.414,1.795,2.927,1.795,3.979v5.046a3.009,3.009,0,0,0,.9,2.139l11.117,11.376a.809.809,0,0,1,.13.983l-1.168,2a.564.564,0,0,1-.823.168l-9.142-6.991a.633.633,0,0,0-1.01.509v6.532a4.7,4.7,0,0,0,.629,2.346l1.839,3.186a4.366,4.366,0,0,0,3.772,2.177H340.1a4.4,4.4,0,0,0,3.784-2.17l3.48-5.951a4.336,4.336,0,0,0,.012-4.348Z" transform="translate(-266.236 -109.792)"/><text class="b" transform="translate(91 70)"><tspan x="0" y="0">PLANE</tspan></text><text class="c" transform="translate(191 70)"><tspan x="0" y="0">SPOTTERS</tspan></text></g></svg>