<svg xmlns="http://www.w3.org/2000/svg" width="395.688" height="353.054" viewBox="0 0 395.688 353.054"><defs><style>.a{fill:#e25222;opacity:0.25;}</style></defs><path class="a" d="M565.6,166.885a38.909,38.909,0,0,0-33.609-19.4l-61.355,0a38.9,38.9,0,0,0-33.609,19.4L308.73,389.1a38.838,38.838,0,0,0,.015,38.793l30.8,53.244a38.934,38.934,0,0,0,33.623,19.4h53.477a38.917,38.917,0,0,0,33.608-19.406l16.386-28.383a41.831,41.831,0,0,0,5.6-20.9V373.63a5.642,5.642,0,0,0-9-4.532l-89.361,62.289a5.02,5.02,0,0,1-7.328-1.5l-10.415-17.806a7.207,7.207,0,0,1,1.163-8.76l106.96-101.367a26.809,26.809,0,0,0,7.981-19.062V237.931c0-9.035,6.46-30.158,15.016-34.981a8.962,8.962,0,0,1,7.333-.474c9.031,3.692,15.99,26.081,15.99,35.455v44.964a26.814,26.814,0,0,0,7.98,19.062l99.058,101.367a7.207,7.207,0,0,1,1.161,8.76L618.364,429.89a5.024,5.024,0,0,1-7.331,1.5L529.577,369.1a5.642,5.642,0,0,0-9,4.532v58.205a41.873,41.873,0,0,0,5.6,20.9l16.387,28.39a38.9,38.9,0,0,0,33.606,19.4h53.079a39.166,39.166,0,0,0,33.717-19.337l31.01-53.022a38.634,38.634,0,0,0,.108-38.739Z" transform="translate(-303.548 -147.481)"/></svg>