<svg width="339" height="339" viewBox="0 0 339 339" fill="none" xmlns="http://www.w3.org/2000/svg">
<circle cx="169.5" cy="169.5" r="169.5" fill="white"/>
<g clip-path="url(#clip0)">
<path d="M210.04 65.2842C207.877 61.5539 204.772 58.4561 201.035 56.3004C197.298 54.1447 193.06 53.0067 188.745 53H149.875C145.56 53.0061 141.322 54.1439 137.585 56.2996C133.848 58.4554 130.743 61.5535 128.58 65.2842L47.2835 205.944C45.1289 209.678 43.9947 213.912 43.9947 218.222C43.9947 222.532 45.1289 226.767 47.2835 230.501L66.7948 264.206C68.9604 267.935 72.0669 271.032 75.8046 273.186C79.5423 275.341 83.7803 276.478 88.0956 276.485H121.969C126.284 276.478 130.522 275.339 134.259 273.184C137.996 271.028 141.101 267.931 143.264 264.201L153.647 246.237C155.97 242.213 157.195 237.65 157.198 233.005V196.152C157.198 195.491 157.015 194.842 156.668 194.279C156.321 193.715 155.824 193.259 155.232 192.961C154.641 192.664 153.978 192.536 153.319 192.592C152.659 192.649 152.028 192.888 151.496 193.282L94.876 232.712C94.5173 232.978 94.1062 233.166 93.6698 233.263C93.2335 233.36 92.7817 233.364 92.3437 233.274C91.9058 233.185 91.4915 233.004 91.1282 232.744C90.7649 232.484 90.4606 232.15 90.2352 231.764L83.6355 220.484C83.1255 219.609 82.9215 218.589 83.0554 217.585C83.1893 216.582 83.6535 215.651 84.3751 214.94L152.122 150.778C153.726 149.203 155.002 147.325 155.874 145.254C156.746 143.183 157.198 140.96 157.203 138.713V110.253C157.203 104.534 161.296 91.1612 166.716 88.1098C167.425 87.7349 168.206 87.5144 169.007 87.4629C169.808 87.4114 170.611 87.53 171.362 87.811C177.087 90.146 181.496 104.32 181.496 110.253V138.713C181.502 140.96 181.954 143.183 182.826 145.254C183.698 147.325 184.973 149.203 186.577 150.778L249.339 214.94C250.06 215.652 250.523 216.583 250.656 217.586C250.789 218.59 250.584 219.61 250.073 220.484L243.479 231.764C243.253 232.15 242.949 232.484 242.585 232.744C242.221 233.005 241.806 233.185 241.368 233.275C240.93 233.364 240.477 233.36 240.04 233.263C239.604 233.166 239.192 232.978 238.833 232.712L187.221 193.282C186.689 192.888 186.058 192.649 185.398 192.592C184.738 192.536 184.076 192.664 183.484 192.961C182.893 193.259 182.396 193.715 182.049 194.279C181.702 194.842 181.518 195.491 181.519 196.152V232.994C181.522 237.639 182.746 242.202 185.07 246.226L195.452 264.195C197.615 267.925 200.721 271.022 204.458 273.177C208.195 275.331 212.433 276.468 216.747 276.474H250.367C254.686 276.465 258.927 275.331 262.674 273.185C266.42 271.039 269.541 267.954 271.73 264.235L291.377 230.67C293.548 226.95 294.698 222.724 294.71 218.418C294.722 214.111 293.595 209.879 291.444 206.147L210.04 65.2842Z" fill="#E25222"/>
</g>
<defs>
<clipPath id="clip0">
<rect width="251" height="233" fill="white" transform="translate(44 53)"/>
</clipPath>
</defs>
</svg>
